<?xml version="1.0" encoding="utf-8"?>
<!-- Generator: Adobe Illustrator 22.1.0, SVG Export Plug-In . SVG Version: 6.00 Build 0)  -->
<svg version="1.1" xmlns="http://www.w3.org/2000/svg" xmlns:xlink="http://www.w3.org/1999/xlink" x="0px" y="0px"
	 viewBox="0 0 340.2 101.8" style="enable-background:new 0 0 340.2 101.8;" xml:space="preserve">
<style type="text/css">
	.st0{fill-rule:evenodd;clip-rule:evenodd;}
	.st1{fill-rule:evenodd;clip-rule:evenodd;fill:#FAA54B;}
	.st2{fill-rule:evenodd;clip-rule:evenodd;fill:url(#SVGID_1_);}
	.st3{fill-rule:evenodd;clip-rule:evenodd;fill:#FFFFFF;}
</style>
<g id="BACKGROUND">
</g>
<g id="DOLORES_SEMERARO_c贸pia">
	<path class="st0" d="M0,101.4h5.4c4,0,8.4-2.3,8.4-7.6c0-5.7-4.4-7.6-8.4-7.6H0V101.4L0,101.4z M2.7,99V88.5H5
		c2.8,0,5.9,0.9,5.9,5.3c0,4.1-3.1,5.2-5.9,5.2H2.7L2.7,99z M23.6,93.7c0,4.8,3.5,8,8.1,8c4.8,0,8.2-3.3,8.2-8c0-4.9-3.5-8-8.2-8
		C27.1,85.8,23.6,88.8,23.6,93.7L23.6,93.7z M26.6,93.7c0-3.1,2.1-5.6,5.2-5.6c3.2,0,5.2,2.4,5.2,5.6c0,3.2-2.1,5.6-5.2,5.6
		C28.7,99.3,26.6,97,26.6,93.7L26.6,93.7z M50.5,101.4h9.2V99h-6.5V86.2h-2.7V101.4L50.5,101.4z M68.1,93.7c0,4.8,3.5,8,8.1,8
		c4.8,0,8.2-3.3,8.2-8c0-4.9-3.5-8-8.2-8C71.5,85.8,68.1,88.8,68.1,93.7L68.1,93.7z M71,93.7c0-3.1,2.1-5.6,5.2-5.6
		c3.2,0,5.2,2.4,5.2,5.6c0,3.2-2.1,5.6-5.2,5.6C73.1,99.3,71,97,71,93.7L71,93.7z M95,101.4h2.7v-6.5h2l3.5,6.5h3.3l-4.1-6.8
		c2.1-0.5,3.5-1.9,3.5-4.1c0-3.2-2.8-4.4-5.6-4.4H95V101.4L95,101.4z M97.7,92.7v-4.3h2.5c1.4,0,3,0.4,3,2.1c0,1.9-1.7,2.2-3.3,2.2
		H97.7L97.7,92.7z M116.4,101.4h10.5V99h-7.8v-4.3h7v-2.3h-7v-3.9h7.4v-2.4h-10.1V101.4L116.4,101.4z M147,87.4
		c-1.2-1.1-2.9-1.6-4.4-1.6c-2.8,0-5.6,1.4-5.6,4.5c0,2.8,2,3.7,3.8,4.3c1.9,0.6,3.5,1.1,3.5,2.6c0,1.6-1.5,2.3-2.8,2.3
		c-1.2,0-2.6-0.6-3.3-1.7l-1.9,1.8c1.2,1.4,3.2,2.2,5.2,2.2c3,0,5.5-1.6,5.5-4.9c0-3-2.5-3.8-4.5-4.5c-1.7-0.5-2.9-0.9-2.9-2.3
		c0-1.5,1.4-2.1,2.7-2.1c1.1,0,2.2,0.6,2.8,1.3L147,87.4L147,87.4z M178,87.4c-1.2-1.1-2.9-1.6-4.4-1.6c-2.8,0-5.6,1.4-5.6,4.5
		c0,2.8,2,3.7,3.8,4.3c1.9,0.6,3.5,1.1,3.5,2.6c0,1.6-1.5,2.3-2.8,2.3c-1.2,0-2.6-0.6-3.3-1.7l-1.9,1.8c1.2,1.4,3.2,2.2,5.2,2.2
		c3,0,5.5-1.6,5.5-4.9c0-3-2.5-3.8-4.5-4.5c-1.7-0.5-2.9-0.9-2.9-2.3c0-1.5,1.4-2.1,2.7-2.1c1.1,0,2.2,0.6,2.8,1.3L178,87.4
		L178,87.4z M188.7,101.4h10.5V99h-7.8v-4.3h7v-2.3h-7v-3.9h7.4v-2.4h-10.1V101.4L188.7,101.4z M209.8,101.4h2.6V89.1h0l4.6,12.2
		h1.9l4.6-12.2h0v12.2h2.7V86.2H222L218,97H218l-4-10.8h-4.2V101.4L209.8,101.4z M237.5,101.4H248V99h-7.8v-4.3h7v-2.3h-7v-3.9h7.4
		v-2.4h-10.1V101.4L237.5,101.4z M258.5,101.4h2.7v-6.5h2l3.5,6.5h3.3l-4.1-6.8c2.1-0.5,3.5-1.9,3.5-4.1c0-3.2-2.8-4.4-5.6-4.4h-5.3
		V101.4L258.5,101.4z M261.2,92.7v-4.3h2.5c1.4,0,3,0.4,3,2.1c0,1.9-1.7,2.2-3.3,2.2H261.2L261.2,92.7z M278.1,101.4h3l1.4-3.5h6.6
		l1.4,3.5h3.1l-6.6-15.2h-2.3L278.1,101.4L278.1,101.4z M283.5,95.6l2.4-6.2l2.3,6.2H283.5L283.5,95.6z M303.1,101.4h2.7v-6.5h2
		l3.5,6.5h3.3l-4.1-6.8c2.1-0.5,3.5-1.9,3.5-4.1c0-3.2-2.8-4.4-5.6-4.4h-5.3V101.4L303.1,101.4z M305.8,92.7v-4.3h2.5
		c1.4,0,3,0.4,3,2.1c0,1.9-1.7,2.2-3.3,2.2H305.8L305.8,92.7z M323.8,93.7c0,4.8,3.5,8,8.1,8c4.8,0,8.2-3.3,8.2-8c0-4.9-3.5-8-8.2-8
		C327.3,85.8,323.8,88.8,323.8,93.7L323.8,93.7z M326.7,93.7c0-3.1,2.1-5.6,5.2-5.6c3.2,0,5.2,2.4,5.2,5.6c0,3.2-2.1,5.6-5.2,5.6
		C328.9,99.3,326.7,97,326.7,93.7z"/>
</g>
<g id="D_symbol_orange_c贸pia">
	<path class="st1" d="M209.8,33.7C209.8,8,190.3,0,171,0h-24.5v67.7h25.3C190.5,67.7,209.8,57.5,209.8,33.7z"/>
</g>
<g id="Shadow_symbol_orange_c贸pia">
	<linearGradient id="SVGID_1_" gradientUnits="userSpaceOnUse" x1="157.7303" y1="26.0058" x2="207.7747" y2="44.2204">
		<stop  offset="0" style="stop-color:#000000;stop-opacity:0.12"/>
		<stop  offset="8.614396e-02" style="stop-color:#0A0703;stop-opacity:0.1096"/>
		<stop  offset="0.2335" style="stop-color:#25190B;stop-opacity:9.184020e-02"/>
		<stop  offset="0.4243" style="stop-color:#523619;stop-opacity:6.883165e-02"/>
		<stop  offset="0.6511" style="stop-color:#8F5F2B;stop-opacity:4.148167e-02"/>
		<stop  offset="0.9055" style="stop-color:#DD9242;stop-opacity:1.079808e-02"/>
		<stop  offset="0.9951" style="stop-color:#FAA54B;stop-opacity:0"/>
	</linearGradient>
	<path class="st2" d="M192.9,8.5L208,23.8c0.8,3,1.2,6.2,1.2,9.9c0,18.4-11.8,28.6-25.7,32l-0.5-0.5c6.1-2.6,10.8-7.8,10.8-16.3
		c0-12.6-9.8-15.5-18.7-18.4c-7-2.3-13.7-4.4-13.7-12.4c0-8.1,7.2-11.8,13.4-11.8c6,0,10.3,2.5,13,6.3L192.9,8.5z"/>
</g>
<g id="S_symbol_white_c贸pia">
	<path class="st3" d="M158,56H157c-0.1,0-0.1,0-0.1,0.1v1c0,0.1,0,0.1,0.1,0.1h1.1c0.1,0,0.1,0,0.1-0.1v-1C158.1,56,158.1,56,158,56
		L158,56z M177.7,44.5h-4c-0.2,0-0.4,0.2-0.4,0.4v3.8c0,0.2,0.2,0.4,0.4,0.4h4c0.2,0,0.4-0.2,0.4-0.4v-3.8
		C178.1,44.7,177.9,44.5,177.7,44.5L177.7,44.5z M184.7,60.2h-3.1c-0.2,0-0.3,0.1-0.3,0.3v2.9c0,0.2,0.1,0.3,0.3,0.3h3.1
		c0.2,0,0.3-0.1,0.3-0.3v-2.9C185,60.4,184.9,60.2,184.7,60.2L184.7,60.2z M148.9,37.9h-1.7c-0.1,0-0.2,0.1-0.2,0.2v1.6
		c0,0.1,0.1,0.2,0.2,0.2h1.7c0.1,0,0.2-0.1,0.2-0.2V38C149.1,37.9,149,37.9,148.9,37.9L148.9,37.9z M175.7,40.5h-2.3
		c-0.1,0-0.2,0.1-0.2,0.2v2.1c0,0.1,0.1,0.2,0.2,0.2h2.3c0.1,0,0.2-0.1,0.2-0.2v-2.1C175.9,40.6,175.8,40.5,175.7,40.5L175.7,40.5z
		 M152.5,40h-2.3c-0.1,0-0.2,0.1-0.2,0.2v2.1c0,0.1,0.1,0.2,0.2,0.2h2.3c0.1,0,0.2-0.1,0.2-0.2v-2.1C152.7,40.1,152.6,40,152.5,40
		L152.5,40z M166.9,56.6h-2.4c-0.1,0-0.2,0.1-0.2,0.2v2.3c0,0.1,0.1,0.2,0.2,0.2h2.4c0.1,0,0.2-0.1,0.2-0.2v-2.3
		C167.1,56.7,167,56.6,166.9,56.6L166.9,56.6z M171.9,59.9h-2.4c-0.1,0-0.2,0.1-0.2,0.2v2.3c0,0.1,0.1,0.2,0.2,0.2h2.4
		c0.1,0,0.2-0.1,0.2-0.2v-2.3C172.1,60,172,59.9,171.9,59.9L171.9,59.9z M179.1,59.7h-2.7c-0.1,0-0.3,0.1-0.3,0.3v2.6
		c0,0.1,0.1,0.3,0.3,0.3h2.7c0.1,0,0.3-0.1,0.3-0.3V60C179.3,59.9,179.2,59.7,179.1,59.7L179.1,59.7z M167.6,50.4h-4.2
		c-0.2,0-0.4,0.2-0.4,0.4v4c0,0.2,0.2,0.4,0.4,0.4h4.2c0.2,0,0.4-0.2,0.4-0.4v-4C168,50.6,167.8,50.4,167.6,50.4L167.6,50.4z
		 M172.9,49.7h-3.6c-0.2,0-0.3,0.2-0.3,0.3v3.5c0,0.2,0.2,0.3,0.3,0.3h3.6c0.2,0,0.3-0.2,0.3-0.3v-3.5
		C173.2,49.9,173.1,49.7,172.9,49.7L172.9,49.7z M179.4,51.3h-4.8c-0.2,0-0.5,0.2-0.5,0.5v4.6c0,0.2,0.2,0.5,0.5,0.5h4.8
		c0.2,0,0.5-0.2,0.5-0.5v-4.6C179.9,51.6,179.7,51.3,179.4,51.3L179.4,51.3z M170.8,46.5h-1.1c-0.1,0-0.1,0-0.1,0.1v1
		c0,0.1,0,0.1,0.1,0.1h1.1c0.1,0,0.1,0,0.1-0.1v-1C170.9,46.6,170.8,46.5,170.8,46.5L170.8,46.5z M186.6,45.5h-1.1
		c-0.1,0-0.1,0-0.1,0.1v1c0,0.1,0,0.1,0.1,0.1h1.1c0.1,0,0.1,0,0.1-0.1v-1C186.7,45.5,186.6,45.5,186.6,45.5L186.6,45.5z
		 M171.2,55.9h-1.1c-0.1,0-0.1,0-0.1,0.1v1c0,0.1,0,0.1,0.1,0.1h1.1c0.1,0,0.1,0,0.1-0.1L171.2,55.9
		C171.3,55.9,171.2,55.9,171.2,55.9L171.2,55.9z M170.1,35.5h-1.1c-0.1,0-0.1,0-0.1,0.1v1c0,0.1,0,0.1,0.1,0.1h1.1
		c0.1,0,0.1,0,0.1-0.1v-1C170.2,35.5,170.2,35.5,170.1,35.5L170.1,35.5z M155.8,34.3h-1.1c-0.1,0-0.1,0-0.1,0.1v1
		c0,0.1,0,0.1,0.1,0.1h1.1c0.1,0,0.1,0,0.1-0.1L155.8,34.3C155.9,34.3,155.9,34.3,155.8,34.3L155.8,34.3z M170,38.3h-1.7
		c-0.1,0-0.2,0.1-0.2,0.2V40c0,0.1,0.1,0.2,0.2,0.2h1.7c0.1,0,0.2-0.1,0.2-0.2v-1.6C170.2,38.3,170.1,38.3,170,38.3L170,38.3z
		 M155.6,52.6h-1.7c-0.1,0-0.2,0.1-0.2,0.2v1.6c0,0.1,0.1,0.2,0.2,0.2h1.7c0.1,0,0.2-0.1,0.2-0.2v-1.6
		C155.7,52.6,155.7,52.6,155.6,52.6L155.6,52.6z M154.1,48h-1.7c-0.1,0-0.2,0.1-0.2,0.2v1.6c0,0.1,0.1,0.2,0.2,0.2h1.7
		c0.1,0,0.2-0.1,0.2-0.2v-1.6C154.2,48.1,154.1,48,154.1,48L154.1,48z M156,38.8h-1.7c-0.1,0-0.2,0.1-0.2,0.2v1.6
		c0,0.1,0.1,0.2,0.2,0.2h1.7c0.1,0,0.2-0.1,0.2-0.2V39C156.2,38.9,156.1,38.8,156,38.8L156,38.8z M159.9,30.3h-2.6
		c-0.1,0-0.2,0.1-0.2,0.2v2.5c0,0.1,0.1,0.2,0.2,0.2h2.6c0.1,0,0.2-0.1,0.2-0.2v-2.5C160.1,30.4,160,30.3,159.9,30.3L159.9,30.3z
		 M160.9,34.9h-1.7c-0.1,0-0.2,0.1-0.2,0.2v1.6c0,0.1,0.1,0.2,0.2,0.2h1.7c0.1,0,0.2-0.1,0.2-0.2V35C161,34.9,161,34.9,160.9,34.9
		L160.9,34.9z M175.3,67c-0.7,0.1-1.4,0.1-2.1,0.1c-7.7,0-15.3-3.1-19.9-9.4l5.5-4.1c1.2,1.9,2.8,3.6,4.7,4.9H162
		c-0.2,0-0.3,0.1-0.3,0.3v2.9c0,0.2,0.1,0.3,0.3,0.3h3.1c0.2,0,0.3-0.1,0.3-0.3v-2.1c0.8,0.4,1.6,0.8,2.5,1v2.9
		c0,0.2,0.2,0.5,0.5,0.5h4.8c0.2,0,0.5-0.2,0.5-0.5v-2c0.4,0,0.9,0,1.3-0.1v2.1c0,0.2,0.2,0.5,0.5,0.5h4.8c0.2,0,0.5-0.2,0.5-0.5
		v-3.7c0.2-0.1,0.4-0.2,0.6-0.3v4.1c0,0.2,0.2,0.5,0.5,0.5h3.6c-2.9,1.7-6.3,2.6-9.8,2.9c0,0-0.1,0-0.1,0H175.3L175.3,67z M185,53.7
		c0.1,0,0.2,0.1,0.2,0.2V56l0,0c1.3-1.8,2.1-4,2.1-6.7c0-7.1-4.7-9.9-10.7-12v-1.6c0-0.2-0.1-0.3-0.3-0.3h-3.1
		c-0.2,0-0.3,0.1-0.3,0.3v0.4l-1-0.3c-8.4-2.6-16.9-6.2-16.9-17.6C155,6,165.9,0.8,175.1,0.8c8.5,0,14.8,3.6,17.8,7.7l-5.1,4.1
		c-2.7-3.8-7-6.3-13-6.3c-6.2,0-13.4,3.7-13.4,11.8c0,8,6.7,10.1,13.7,12.4c3.6,1.2,7.4,2.4,10.6,4.2c-0.1,0-0.1,0-0.2,0h-4
		c-0.2,0-0.4,0.2-0.4,0.4v3.8c0,0.2,0.2,0.4,0.4,0.4h4c0.2,0,0.4-0.2,0.4-0.4V35c0-0.1-0.1-0.3-0.2-0.3c4.6,2.7,8.1,6.7,8.1,14.2
		c0,6.5-2.8,11.1-6.9,14.1v-4c0-0.2-0.2-0.5-0.5-0.5h-3.8c0.9-0.7,1.7-1.4,2.4-2.3c0,0,0,0-0.1,0h-2.3c-0.1,0-0.2-0.1-0.2-0.2v-2.1
		c0-0.1,0.1-0.2,0.2-0.2H185L185,53.7z M160.1,50.9h-2.3c-0.1,0-0.2,0.1-0.2,0.2v2.1c0,0.1,0.1,0.2,0.2,0.2h2.3
		c0.1,0,0.2-0.1,0.2-0.2v-2.1C160.3,51,160.2,50.9,160.1,50.9L160.1,50.9z M182.4,41.6h-2.3c0,0,0,0-0.1,0c0,0,0,0,0-0.1v-2.1
		c0-0.1-0.1-0.2-0.2-0.2h-2.3c-0.1,0-0.2,0.1-0.2,0.2v2.1c0,0.1,0.1,0.2,0.2,0.2h2.3c0,0,0,0,0.1,0c0,0,0,0,0,0.1v2.1
		c0,0.1,0.1,0.2,0.2,0.2h2.3c0.1,0,0.2-0.1,0.2-0.2v-2.1C182.6,41.7,182.5,41.6,182.4,41.6L182.4,41.6z M160.6,40.2h-2.3
		c-0.1,0-0.2,0.1-0.2,0.2v2.1c0,0.1,0.1,0.2,0.2,0.2h2.3c0.1,0,0.2-0.1,0.2-0.2v-2.1C160.8,40.3,160.7,40.2,160.6,40.2L160.6,40.2z
		 M183.7,34.9h-2.3c-0.1,0-0.2,0.1-0.2,0.2v2.1c0,0.1,0.1,0.2,0.2,0.2h2.3c0.1,0,0.2-0.1,0.2-0.2v-2.1
		C183.9,35,183.8,34.9,183.7,34.9L183.7,34.9z M166.5,37.5h-2.3c-0.1,0-0.2,0.1-0.2,0.2v2.1c0,0.1,0.1,0.2,0.2,0.2h2.3
		c0.1,0,0.2-0.1,0.2-0.2v-2.1C166.7,37.6,166.6,37.5,166.5,37.5L166.5,37.5z M157,62.8h-3.1c-0.2,0-0.3,0.1-0.3,0.3V66
		c0,0.2,0.1,0.3,0.3,0.3h3.1c0.2,0,0.3-0.1,0.3-0.3v-2.9C157.3,63,157.1,62.8,157,62.8L157,62.8z M160.3,44.4h-3.1
		c-0.2,0-0.3,0.1-0.3,0.3v2.9c0,0.2,0.1,0.3,0.3,0.3h3.1c0.2,0,0.3-0.1,0.3-0.3v-2.9C160.6,44.6,160.5,44.4,160.3,44.4L160.3,44.4z
		 M151.7,57.6h-3.1c-0.2,0-0.3,0.1-0.3,0.3v2.9c0,0.2,0.1,0.3,0.3,0.3h3.1c0.2,0,0.3-0.1,0.3-0.3v-2.9
		C152,57.8,151.9,57.6,151.7,57.6L151.7,57.6z M167.1,44H164c-0.2,0-0.3,0.1-0.3,0.3v2.9c0,0.2,0.1,0.3,0.3,0.3h3.1
		c0.2,0,0.3-0.1,0.3-0.3v-2.9C167.4,44.1,167.3,44,167.1,44L167.1,44z M176,36.1h-2.2c-0.1,0-0.2,0.1-0.2,0.2v2.1
		c0,0.1,0.1,0.2,0.2,0.2h2.2c0.1,0,0.2-0.1,0.2-0.2v-2.1C176.2,36.2,176.1,36.1,176,36.1L176,36.1z M184.3,48.1h-3.1
		c-0.2,0-0.3,0.1-0.3,0.3v2.9c0,0.2,0.1,0.3,0.3,0.3h3.1c0.2,0,0.3-0.1,0.3-0.3v-2.9C184.6,48.2,184.5,48.1,184.3,48.1L184.3,48.1z
		 M171.2,41.6h-3.1c-0.2,0-0.3,0.1-0.3,0.3v2.9c0,0.2,0.1,0.3,0.3,0.3h3.1c0.2,0,0.3-0.1,0.3-0.3v-2.9
		C171.5,41.7,171.4,41.6,171.2,41.6L171.2,41.6z M160.4,59.7h-2.3c-0.1,0-0.2,0.1-0.2,0.2v2.1c0,0.1,0.1,0.2,0.2,0.2h2.3
		c0.1,0,0.2-0.1,0.2-0.2v-2.1C160.6,59.8,160.5,59.7,160.4,59.7L160.4,59.7z M192.1,44.4h-2.3c0,0,0,0-0.1,0c0,0,0,0,0-0.1v-2.1
		c0-0.1-0.1-0.2-0.2-0.2h-2.3c-0.1,0-0.2,0.1-0.2,0.2v2.1c0,0.1,0.1,0.2,0.2,0.2h2.3c0,0,0,0,0.1,0c0,0,0,0,0,0.1v2.1
		c0,0.1,0.1,0.2,0.2,0.2h2.3c0.1,0,0.2-0.1,0.2-0.2v-2.1C192.3,44.5,192.2,44.4,192.1,44.4L192.1,44.4z M192.6,50.9h-3.1
		c-0.2,0-0.3,0.1-0.3,0.3v2.9c0,0.2,0.1,0.3,0.3,0.3h3.1c0.2,0,0.3-0.1,0.3-0.3v-2.9C192.9,51,192.8,50.9,192.6,50.9z"/>
</g>
</svg>
