<?xml version="1.0" encoding="utf-8"?>
<!-- Generator: Adobe Illustrator 22.1.0, SVG Export Plug-In . SVG Version: 6.00 Build 0)  -->
<svg version="1.1" xmlns="http://www.w3.org/2000/svg" xmlns:xlink="http://www.w3.org/1999/xlink" x="0px" y="0px"
	 viewBox="0 0 595 595" style="enable-background:new 0 0 595 595;" xml:space="preserve">
<style type="text/css">
	.st0{fill-rule:evenodd;clip-rule:evenodd;fill:#FFFFFF;}
	.st1{fill-rule:evenodd;clip-rule:evenodd;fill:#FAA54B;}
	.st2{fill-rule:evenodd;clip-rule:evenodd;fill:url(#SVGID_1_);}
</style>
<g id="BACKGROUND">
	<rect y="-0.3" class="st0" width="595.3" height="595.3"/>
</g>
<g id="D_symbol_orange_cópia">
	<path class="st1" d="M497.9,292.1c0-159.3-121.3-209.2-240.7-209.2H105.1v420.8H262C377.9,503.7,497.9,440.1,497.9,292.1z"/>
</g>
<g id="Shadow_symbol_orange_cópia">
	<linearGradient id="SVGID_1_" gradientUnits="userSpaceOnUse" x1="174.4856" y1="244.4185" x2="485.3427" y2="357.5612">
		<stop  offset="0" style="stop-color:#000000;stop-opacity:0.12"/>
		<stop  offset="8.614396e-02" style="stop-color:#0A0703;stop-opacity:0.1096"/>
		<stop  offset="0.2335" style="stop-color:#25190B;stop-opacity:9.184020e-02"/>
		<stop  offset="0.4243" style="stop-color:#523619;stop-opacity:6.883165e-02"/>
		<stop  offset="0.6511" style="stop-color:#8F5F2B;stop-opacity:4.148167e-02"/>
		<stop  offset="0.9055" style="stop-color:#DD9242;stop-opacity:1.079808e-02"/>
		<stop  offset="0.9951" style="stop-color:#FAA54B;stop-opacity:0"/>
	</linearGradient>
	<path class="st2" d="M393.1,135.5l93.9,95.1c4.7,18.4,7.2,38.8,7.2,61.5c0,114.4-73.2,177.4-159.9,198.9l-2.9-3.3
		c37.9-16,67.3-48.7,67.3-101.1c0-78.6-60.8-96.2-116.2-114.5c-43.7-14.4-85.2-27.1-85.2-76.9c0-50.3,44.8-73.6,83.5-73.6
		c37.1,0,64.2,15.5,80.8,39.3L393.1,135.5z"/>
</g>
<g id="S_symbol_white_cópia">
	<path class="st0" d="M176.4,430.7h-6.6c-0.3,0-0.6,0.3-0.6,0.6v6.3c0,0.3,0.3,0.6,0.6,0.6h6.6c0.3,0,0.6-0.3,0.6-0.6v-6.3
		C177,431,176.8,430.7,176.4,430.7L176.4,430.7z M298.7,359.3h-24.8c-1.3,0-2.3,1.1-2.3,2.3v23.6c0,1.3,1,2.3,2.3,2.3h24.8
		c1.3,0,2.3-1,2.3-2.3v-23.6C301,360.3,300,359.3,298.7,359.3L298.7,359.3z M342.3,457.1h-19c-1,0-1.8,0.8-1.8,1.8v18.1
		c0,1,0.8,1.8,1.8,1.8h19c1,0,1.8-0.8,1.8-1.8v-18.1C344.1,457.9,343.3,457.1,342.3,457.1L342.3,457.1z M119.9,318.1h-10.3
		c-0.5,0-1,0.4-1,1v9.8c0,0.5,0.4,1,1,1h10.3c0.5,0,1-0.4,1-1v-9.8C120.9,318.6,120.5,318.1,119.9,318.1L119.9,318.1z M286.2,334.5
		h-14c-0.7,0-1.3,0.6-1.3,1.3v13.3c0,0.7,0.6,1.3,1.3,1.3h14c0.7,0,1.3-0.6,1.3-1.3v-13.3C287.5,335.1,286.9,334.5,286.2,334.5
		L286.2,334.5z M141.7,331.5h-14c-0.7,0-1.3,0.6-1.3,1.3v13.3c0,0.7,0.6,1.3,1.3,1.3h14c0.7,0,1.3-0.6,1.3-1.3v-13.3
		C143,332.1,142.4,331.5,141.7,331.5L141.7,331.5z M231.1,434.5h-14.8c-0.8,0-1.4,0.6-1.4,1.4v14.1c0,0.8,0.6,1.4,1.4,1.4h14.8
		c0.8,0,1.4-0.6,1.4-1.4v-14.1C232.5,435.1,231.9,434.5,231.1,434.5L231.1,434.5z M262.5,455.1h-14.8c-0.8,0-1.4,0.6-1.4,1.4v14.1
		c0,0.8,0.6,1.4,1.4,1.4h14.8c0.8,0,1.4-0.6,1.4-1.4v-14.1C263.9,455.8,263.3,455.1,262.5,455.1L262.5,455.1z M307.2,453.9h-16.9
		c-0.9,0-1.6,0.7-1.6,1.6v16.1c0,0.9,0.7,1.6,1.6,1.6h16.9c0.9,0,1.6-0.7,1.6-1.6v-16.1C308.8,454.7,308,453.9,307.2,453.9
		L307.2,453.9z M235.6,396h-26c-1.3,0-2.5,1.1-2.5,2.4v24.8c0,1.3,1.1,2.5,2.5,2.5h26c1.4,0,2.4-1.1,2.4-2.5v-24.8
		C238.1,397.1,237,396,235.6,396L235.6,396z M268.7,391.8H246c-1.2,0-2.1,1-2.1,2.1v21.6c0,1.2,1,2.1,2.1,2.1h22.6
		c1.2,0,2.1-1,2.1-2.1v-21.6C270.8,392.8,269.8,391.8,268.7,391.8L268.7,391.8z M309.1,401.8h-29.9c-1.5,0-2.8,1.3-2.8,2.8v28.5
		c0,1.5,1.3,2.8,2.8,2.8h29.9c1.5,0,2.8-1.3,2.8-2.8v-28.5C311.9,403.1,310.7,401.8,309.1,401.8L309.1,401.8z M255.4,371.9h-6.6
		c-0.3,0-0.6,0.3-0.6,0.6v6.3c0,0.3,0.3,0.6,0.6,0.6h6.6c0.3,0,0.6-0.3,0.6-0.6v-6.3C256.1,372.1,255.8,371.9,255.4,371.9
		L255.4,371.9z M353.7,365.4h-6.6c-0.3,0-0.6,0.3-0.6,0.6v6.3c0,0.3,0.3,0.6,0.6,0.6h6.6c0.3,0,0.6-0.3,0.6-0.6V366
		C354.3,365.7,354,365.4,353.7,365.4L353.7,365.4z M257.9,430h-6.6c-0.3,0-0.6,0.3-0.6,0.6v6.3c0,0.3,0.3,0.6,0.6,0.6h6.6
		c0.3,0,0.6-0.3,0.6-0.6v-6.3C258.5,430.3,258.2,430,257.9,430L257.9,430z M251.6,303.2H245c-0.3,0-0.6,0.3-0.6,0.6v6.3
		c0,0.3,0.3,0.6,0.6,0.6h6.6c0.3,0,0.6-0.3,0.6-0.6v-6.3C252.2,303.5,251.9,303.2,251.6,303.2L251.6,303.2z M162.6,295.9H156
		c-0.3,0-0.6,0.3-0.6,0.6v6.3c0,0.3,0.3,0.6,0.6,0.6h6.6c0.3,0,0.6-0.3,0.6-0.6v-6.3C163.2,296.2,163,295.9,162.6,295.9L162.6,295.9
		z M250.9,320.6h-10.3c-0.5,0-1,0.4-1,1v9.8c0,0.5,0.4,1,1,1h10.3c0.5,0,1-0.4,1-1v-9.8C251.9,321.1,251.5,320.6,250.9,320.6
		L250.9,320.6z M161.2,409.4h-10.3c-0.5,0-1,0.4-1,1v9.8c0,0.5,0.4,1,1,1h10.3c0.5,0,1-0.4,1-1v-9.8
		C162.2,409.9,161.7,409.4,161.2,409.4L161.2,409.4z M151.6,381.1h-10.3c-0.5,0-1,0.4-1,1v9.8c0,0.5,0.4,1,1,1h10.3c0.5,0,1-0.4,1-1
		V382C152.6,381.5,152.2,381.1,151.6,381.1L151.6,381.1z M163.8,324.1h-10.3c-0.5,0-1,0.4-1,1v9.8c0,0.5,0.4,1,1,1h10.3
		c0.5,0,1-0.4,1-1v-9.8C164.7,324.5,164.3,324.1,163.8,324.1L163.8,324.1z M188,271.1h-16.4c-0.8,0-1.5,0.7-1.5,1.5v15.6
		c0,0.8,0.7,1.5,1.5,1.5H188c0.8,0,1.5-0.7,1.5-1.5v-15.6C189.5,271.8,188.8,271.1,188,271.1L188,271.1z M194,299.5h-10.3
		c-0.5,0-1,0.4-1,1v9.8c0,0.5,0.4,1,1,1H194c0.5,0,1-0.4,1-1v-9.8C195,299.9,194.5,299.5,194,299.5L194,299.5z M283.7,499
		c-4.3,0.3-8.6,0.5-12.9,0.5c-47.6,0-95.1-19.4-123.4-58.1l34.3-25.4c7.3,11.7,17.1,22.3,29.2,30.7h-9.7c-1,0-1.8,0.8-1.8,1.8v18.1
		c0,1,0.8,1.8,1.8,1.8h19c1,0,1.8-0.8,1.8-1.8v-13.2c4.8,2.5,10,4.7,15.4,6.5v18c0,1.5,1.3,2.8,2.8,2.8h29.9c1.5,0,2.8-1.3,2.8-2.8
		v-12.7c2.7,0,5.4-0.2,8.1-0.5v13.1c0,1.5,1.3,2.8,2.8,2.8h29.9c1.5,0,2.8-1.3,2.8-2.8v-23.3c1.3-0.7,2.6-1.3,3.9-2.1v25.3
		c0,1.5,1.3,2.8,2.8,2.8h22.5c-18.2,10.5-39.4,16.5-60.8,18.3c-0.2,0.1-0.3,0.1-0.5,0.1H283.7L283.7,499z M343.7,416.2
		c0.7,0,1.3,0.6,1.3,1.3v13.3l0,0.1c8.2-11.2,13.2-25,13.2-41.6c0-43.8-29.4-61.4-66.7-74.7V305c0-1-0.8-1.8-1.8-1.8h-19
		c-1,0-1.8,0.8-1.8,1.8v2.3l-6.5-2c-52-16-105.1-38.7-105.1-109.5c0-75.8,67.5-107.9,125-107.9c52.6,0,91.8,22.1,110.6,47.6
		l-31.5,25.4c-16.6-23.8-43.7-39.3-80.8-39.3c-38.7,0-83.5,23.2-83.5,73.6c0,49.8,41.5,62.5,85.2,76.9c22.6,7.5,46.1,14.8,66,26.3
		c-0.3-0.2-0.7-0.3-1.1-0.3h-24.8c-1.3,0-2.3,1-2.3,2.3v23.6c0,1.3,1,2.3,2.3,2.3h24.8c1.3,0,2.3-1.1,2.3-2.3v-23.6
		c0-0.8-0.4-1.6-1.1-2c28.8,16.6,50.1,41.8,50.1,88.2c0,40.4-17.4,69.1-42.7,87.4v-24.7c0-1.5-1.3-2.8-2.8-2.8h-23.6
		c5.5-4.1,10.5-8.9,14.7-14.4c-0.1,0.1-0.3,0.1-0.5,0.1h-14c-0.7,0-1.3-0.6-1.3-1.3v-13.3c0-0.7,0.6-1.3,1.3-1.3H343.7L343.7,416.2z
		 M189.2,399.1h-14c-0.7,0-1.3,0.6-1.3,1.3v13.3c0,0.7,0.6,1.3,1.3,1.3h14c0.7,0,1.3-0.6,1.3-1.3v-13.3
		C190.5,399.7,189.9,399.1,189.2,399.1L189.2,399.1z M327.8,341.1h-14c-0.2,0-0.3,0-0.4,0.1c0-0.1,0-0.2,0-0.4v-13.3
		c0-0.7-0.6-1.3-1.3-1.3h-14c-0.7,0-1.3,0.6-1.3,1.3v13.3c0,0.7,0.6,1.3,1.3,1.3h14c0.1,0,0.3,0,0.4-0.1c0,0.1,0,0.2,0,0.4v13.3
		c0,0.7,0.6,1.3,1.3,1.3h14c0.7,0,1.3-0.6,1.3-1.3v-13.3C329.2,341.7,328.6,341.1,327.8,341.1L327.8,341.1z M192.3,332.9h-14
		c-0.7,0-1.3,0.6-1.3,1.3v13.3c0,0.7,0.6,1.3,1.3,1.3h14c0.7,0,1.3-0.6,1.3-1.3v-13.3C193.7,333.5,193.1,332.9,192.3,332.9
		L192.3,332.9z M335.7,299.6h-14c-0.7,0-1.3,0.6-1.3,1.3v13.3c0,0.7,0.6,1.3,1.3,1.3h14c0.7,0,1.3-0.6,1.3-1.3v-13.3
		C337,300.2,336.4,299.6,335.7,299.6L335.7,299.6z M228.9,315.6h-14c-0.7,0-1.3,0.6-1.3,1.3v13.3c0,0.7,0.6,1.3,1.3,1.3h14
		c0.7,0,1.3-0.6,1.3-1.3V317C230.2,316.2,229.6,315.6,228.9,315.6L228.9,315.6z M169.8,473.1h-19c-1,0-1.8,0.8-1.8,1.8V493
		c0,1,0.8,1.8,1.8,1.8h19c1,0,1.8-0.8,1.8-1.8v-18.1C171.6,473.9,170.8,473.1,169.8,473.1L169.8,473.1z M190.7,358.9h-19
		c-1,0-1.8,0.8-1.8,1.8v18.1c0,1,0.8,1.8,1.8,1.8h19c1,0,1.8-0.8,1.8-1.8v-18.1C192.5,359.7,191.7,358.9,190.7,358.9L190.7,358.9z
		 M137.3,440.8h-19c-1,0-1.8,0.8-1.8,1.8v18.1c0,1,0.8,1.8,1.8,1.8h19c1,0,1.8-0.8,1.8-1.8v-18.1
		C139.1,441.6,138.3,440.8,137.3,440.8L137.3,440.8z M232.7,356.1h-19c-1,0-1.8,0.8-1.8,1.8V376c0,1,0.8,1.8,1.8,1.8h19
		c1,0,1.8-0.8,1.8-1.8v-18.1C234.5,356.9,233.7,356.1,232.7,356.1L232.7,356.1z M287.8,307.2h-13.5c-0.7,0-1.3,0.6-1.3,1.3v12.8
		c0,0.7,0.6,1.3,1.3,1.3h13.5c0.7,0,1.3-0.6,1.3-1.3v-12.8C289.1,307.8,288.5,307.2,287.8,307.2L287.8,307.2z M339.8,381.6h-19
		c-1,0-1.8,0.8-1.8,1.8v18.1c0,1,0.8,1.8,1.8,1.8h19c1,0,1.8-0.8,1.8-1.8v-18.1C341.6,382.4,340.8,381.6,339.8,381.6L339.8,381.6z
		 M258.4,341.3h-19c-1,0-1.8,0.8-1.8,1.8v18.1c0,1,0.8,1.8,1.8,1.8h19c1,0,1.8-0.8,1.8-1.8v-18.1
		C260.2,342.1,259.4,341.3,258.4,341.3L258.4,341.3z M191.2,453.9h-14c-0.7,0-1.3,0.6-1.3,1.3v13.3c0,0.7,0.6,1.3,1.3,1.3h14
		c0.7,0,1.3-0.6,1.3-1.3v-13.3C192.5,454.5,191.9,453.9,191.2,453.9L191.2,453.9z M387.9,358.7h-14c-0.1,0-0.3,0-0.4,0.1
		c0-0.1,0.1-0.2,0.1-0.4v-13.3c0-0.7-0.6-1.3-1.3-1.3h-14c-0.7,0-1.3,0.6-1.3,1.3v13.3c0,0.7,0.6,1.3,1.3,1.3h14
		c0.1,0,0.3,0,0.4-0.1c0,0.1,0,0.2,0,0.4v13.3c0,0.7,0.6,1.3,1.3,1.3h14c0.7,0,1.3-0.6,1.3-1.3V360
		C389.3,359.3,388.7,358.7,387.9,358.7L387.9,358.7z M391.2,399.1h-19c-1,0-1.8,0.8-1.8,1.8v18.1c0,1,0.8,1.8,1.8,1.8h19
		c1,0,1.8-0.8,1.8-1.8v-18.1C392.9,399.9,392.1,399.1,391.2,399.1z"/>
</g>
</svg>
